                                                                        S      1
,,15Hpart1(SW_AP214),19Hpart1(SW_AP214).igs,13HCAD Exchanger,38HCAD ExchG      1
anger 3.8.0 (cadexchanger.com),32,38,9,308,17,,,2,2HMM,,1.0,15H20200504.G      2
162831,1.0D-7,,,,11,,15H20200504.162831,;                               G      3
     408       1       0       0       0       0       0       000000000D      1
     408       0       0       1       0                               0D      2
     308       2       0       0       0       0       0       000010200D      3
     308       0      -5       1       0                               0D      4
     314       3       0       0       0       0       0       000000200D      5
     314       0       0       1       0                               0D      6
     406       4       0       0       0       0       0       000010200D      7
     406       0       0       1      15                               0D      8
     186       5       0       0       0       0       0       000010000D      9
     186       0       0       1       0                               0D     10
     514       6       0       0       0       0       0       000010000D     11
     514       0       0       1       1                               0D     12
     406       7       0       0       0       0       0       000010200D     13
     406       0       0       1      15                               0D     14
     510       8       0       0       0       0       0       000010000D     15
     510       0       0       1       1                               0D     16
     406       9       0       0       0       0       0       000010200D     17
     406       0       0       1      15                               0D     18
     192      10       0       0       0       0       0       000010000D     19
     192       0       0       1       1                               0D     20
     116      11       0       0       0       0       0       000010000D     21
     116       0       0       1       0                               0D     22
     123      12       0       0       0       0       0       000010200D     23
     123       0       0       1       0                               0D     24
     123      13       0       0       0       0       0       000010200D     25
     123       0       0       1       0                               0D     26
     508      14       0       0       0       0       0       000010000D     27
     508       0       0       1       1                               0D     28
     406      15       0       0       0       0       0       000010200D     29
     406       0       0       1      15                               0D     30
     504      16       0       0       0       0       0       000010001D     31
     504       0       0       2       1                               0D     32
     100      18       0       0       0       0      35       000010000D     33
     100       0       0       1       0                               0D     34
     124      19       0       0       0       0       0       000000000D     35
     124       0       0       1       0                               0D     36
     406      20       0       0       0       0       0       000010200D     37
     406       0       0       1      15                               0D     38
     502      21       0       0       0       0       0       000010000D     39
     502       0       0       2       1                               0D     40
     110      23       0       0       0       0       0       000010000D     41
     110       0       0       1       0                               0D     42
     406      24       0       0       0       0       0       000010200D     43
     406       0       0       1      15                               0D     44
     100      25       0       0       0       0       0       000010000D     45
     100       0       0       1       0                               0D     46
     406      26       0       0       0       0       0       000010200D     47
     406       0       0       1      15                               0D     48
     110      27       0       0       0       0       0       000010000D     49
     110       0       0       1       0                               0D     50
     406      28       0       0       0       0       0       000010200D     51
     406       0       0       1      15                               0D     52
     510      29       0       0       0       0       0       000010000D     53
     510       0       0       1       1                               0D     54
     406      30       0       0       0       0       0       000010200D     55
     406       0       0       1      15                               0D     56
     192      31       0       0       0       0       0       000010000D     57
     192       0       0       1       1                               0D     58
     116      32       0       0       0       0       0       000010000D     59
     116       0       0       1       0                               0D     60
     123      33       0       0       0       0       0       000010200D     61
     123       0       0       1       0                               0D     62
     123      34       0       0       0       0       0       000010200D     63
     123       0       0       1       0                               0D     64
     508      35       0       0       0       0       0       000010000D     65
     508       0       0       1       1                               0D     66
     406      36       0       0       0       0       0       000010200D     67
     406       0       0       1      15                               0D     68
     100      37       0       0       0       0      71       000010000D     69
     100       0       0       2       0                               0D     70
     124      39       0       0       0       0       0       000000000D     71
     124       0       0       1       0                               0D     72
     406      40       0       0       0       0       0       000010200D     73
     406       0       0       1      15                               0D     74
     100      41       0       0       0       0       0       000010000D     75
     100       0       0       2       0                               0D     76
     406      43       0       0       0       0       0       000010200D     77
     406       0       0       1      15                               0D     78
     510      44       0       0       0       0       0       000010000D     79
     510       0       0       1       1                               0D     80
     406      45       0       0       0       0       0       000010200D     81
     406       0       0       1      15                               0D     82
     190      46       0       0       0       0       0       000010000D     83
     190       0       0       1       1                               0D     84
     116      47       0       0       0       0       0       000010000D     85
     116       0       0       1       0                               0D     86
     123      48       0       0       0       0       0       000010200D     87
     123       0       0       1       0                               0D     88
     123      49       0       0       0       0       0       000010200D     89
     123       0       0       1       0                               0D     90
     508      50       0       0       0       0       0       000010000D     91
     508       0       0       1       1                               0D     92
     406      51       0       0       0       0       0       000010200D     93
     406       0       0       1      15                               0D     94
     510      52       0       0       0       0       0       000010000D     95
     510       0       0       1       1                               0D     96
     406      53       0       0       0       0       0       000010200D     97
     406       0       0       1      15                               0D     98
     190      54       0       0       0       0       0       000010000D     99
     190       0       0       1       1                               0D    100
     116      55       0       0       0       0       0       000010000D    101
     116       0       0       1       0                               0D    102
     123      56       0       0       0       0       0       000010200D    103
     123       0       0       1       0                               0D    104
     123      57       0       0       0       0       0       000010200D    105
     123       0       0       1       0                               0D    106
     508      58       0       0       0       0       0       000010000D    107
     508       0       0       1       1                               0D    108
     406      59       0       0       0       0       0       000010200D    109
     406       0       0       1      15                               0D    110
408,3,0.0,0.0,0.0,1.0;                                                 1P      1
308,0,15Hpart1(SW_AP214),1,9,0,1,7;                                    3P      2
314,79.215690613,81.960784912,93.333335876;                            5P      3
406,1,32HÁîáûøêà-Âûòÿíóòü1;                             7P      4
186,11,1,0;                                                            9P      5
514,4,15,1,53,1,79,1,95,0,0,1,13;                                     11P      6
406,1,4HNONE;                                                         13P      7
510,19,1,0,27,0,1,17;                                                 15P      8
406,1,4HNONE;                                                         17P      9
192,21,23,30.0,25;                                                    19P     10
116,0.0,0.0,10.0,0;                                                   21P     11
123,0.0,0.0,-1.0;                                                     23P     12
123,-1.0,0.0,0.0;                                                     25P     13
508,4,0,31,1,0,0,0,31,2,1,0,0,31,3,1,0,0,31,4,0,0,0,1,29;             27P     14
406,1,4HNONE;                                                         29P     15
504,6,33,39,1,39,2,41,39,1,39,3,45,39,3,39,4,49,39,2,39,4,69,39,      31P     16
2,39,1,75,39,4,39,3;                                                  31P     17
100,0.0,0.0,0.0,30.0,0.0,-30.0,3.673940397D-15,0,1,37;                33P     18
124,1.0,0.0,0.0,0.0,0.0,1.0,0.0,0.0,0.0,0.0,1.0,10.0;                 35P     19
406,1,4HNONE;                                                         37P     20
502,4,30.0,3.673940397D-15,10.0,-30.0,0.0,10.0,30.0,                  39P     21
3.673940397D-15,0.0,-30.0,0.0,0.0;                                    39P     22
110,30.0,3.673940397D-15,10.0,30.0,3.673940397D-15,0.0,0,1,43;        41P     23
406,1,4HNONE;                                                         43P     24
100,0.0,0.0,0.0,30.0,0.0,-30.0,3.673940397D-15,0,1,47;                45P     25
406,1,4HNONE;                                                         47P     26
110,-30.0,0.0,10.0,-30.0,0.0,0.0,0,1,51;                              49P     27
406,1,4HNONE;                                                         51P     28
510,57,1,0,65,0,1,55;                                                 53P     29
406,1,4HNONE;                                                         55P     30
192,59,61,30.0,63;                                                    57P     31
116,0.0,0.0,10.0,0;                                                   59P     32
123,0.0,0.0,-1.0;                                                     61P     33
123,-1.0,0.0,0.0;                                                     63P     34
508,4,0,31,2,0,0,0,31,5,0,0,0,31,4,1,0,0,31,6,1,0,0,1,67;             65P     35
406,1,4HNONE;                                                         67P     36
100,0.0,0.0,0.0,-30.0,3.673940397D-15,30.0,-7.347880795D-15,0,1,      69P     37
73;                                                                   69P     38
124,1.0,0.0,0.0,0.0,0.0,1.0,0.0,0.0,0.0,0.0,1.0,10.0;                 71P     39
406,1,4HNONE;                                                         73P     40
100,0.0,0.0,0.0,-30.0,3.673940397D-15,30.0,-7.347880795D-15,0,1,      75P     41
77;                                                                   75P     42
406,1,4HNONE;                                                         77P     43
510,83,1,0,91,0,1,81;                                                 79P     44
406,1,4HNONE;                                                         81P     45
190,85,87,89;                                                         83P     46
116,0.0,0.0,10.0,0;                                                   85P     47
123,0.0,0.0,1.0;                                                      87P     48
123,1.0,0.0,0.0;                                                      89P     49
508,2,0,31,5,1,0,0,31,1,1,0,0,1,93;                                   91P     50
406,1,4HNONE;                                                         93P     51
510,99,1,0,107,0,1,97;                                                95P     52
406,1,4HNONE;                                                         97P     53
190,101,103,105;                                                      99P     54
116,0.0,0.0,0.0,0;                                                   101P     55
123,0.0,0.0,1.0;                                                     103P     56
123,1.0,0.0,0.0;                                                     105P     57
508,2,0,31,6,0,0,0,31,3,0,0,0,1,109;                                 107P     58
406,1,4HNONE;                                                        109P     59
S      1G      3D    110P     59                                        T      1
